<?xml version="1.0" encoding="UTF-8" standalone="no"?>
<!-- Created with Inkscape (http://www.inkscape.org/) -->

<svg
   width="40"
   viewBox="0 0 541.86666 541.86666"
   version="1.1"
   id="svg1"
   inkscape:version="1.3.2 (091e20ef0f, 2023-11-25)"
   sodipodi:docname="corviraptor.svg"
   inkscape:export-filename="betterlogo.svg"
   inkscape:export-xdpi="96"
   inkscape:export-ydpi="96"
   xmlns:inkscape="http://www.inkscape.org/namespaces/inkscape"
   xmlns:sodipodi="http://sodipodi.sourceforge.net/DTD/sodipodi-0.dtd"
   xmlns="http://www.w3.org/2000/svg"
   xmlns:svg="http://www.w3.org/2000/svg">
  <sodipodi:namedview
     id="namedview1"
     pagecolor="#7d7d7d"
     bordercolor="#000000"
     borderopacity="0.25"
     inkscape:showpageshadow="2"
     inkscape:pageopacity="0.0"
     inkscape:pagecheckerboard="0"
     inkscape:deskcolor="#d1d1d1"
     inkscape:document-units="mm"
     inkscape:zoom="0.25879279"
     inkscape:cx="1277.0835"
     inkscape:cy="1174.685"
     inkscape:window-width="2560"
     inkscape:window-height="1371"
     inkscape:window-x="0"
     inkscape:window-y="32"
     inkscape:window-maximized="1"
     inkscape:current-layer="layer1"
     showguides="false" />
  <defs
     id="defs1" />
  <g
     inkscape:label="Layer 1"
     inkscape:groupmode="layer"
     id="layer1">
    <path
       style="font-variation-settings:normal;opacity:1;vector-effect:none;fill-opacity:1;fill-rule:evenodd;stroke:none;stroke-width:8.80145;stroke-linecap:butt;stroke-linejoin:miter;stroke-miterlimit:4;stroke-dasharray:none;stroke-dashoffset:0;stroke-opacity:1;-inkscape-stroke:none;stop-color:#000000;stop-opacity:1"
       d="m 474.13333,169.33333 v 84.30958 h -67.32147 c -1.11931,3.15919 -2.30856,6.28813 -3.64629,9.34775 a 139.7,139.7 0 0 1 -2.31407,5.02243 c -1.97398,4.0681 -4.13609,8.03465 -6.48849,11.88352 a 139.7,139.7 0 0 1 -4.06952,6.26576 c -2.18975,3.18716 -4.50322,6.28778 -6.95048,9.28419 a 139.7,139.7 0 0 1 -6.16035,7.03265 c -2.13955,2.28885 -4.35734,4.50674 -6.65179,6.65179 a 139.7,139.7 0 0 1 -8.76329,7.53546 c -2.08472,1.64785 -4.20751,3.25359 -6.39237,4.78575 a 139.7,139.7 0 0 1 -11.33109,7.13548 c -1.27802,0.72398 -2.56862,1.42948 -3.87367,2.11512 a 139.7,139.7 0 0 1 -18.11827,7.96385 H 508 L 541.86667,304.8 V 169.33333 Z"
       id="path5" />
    <path
       style="font-variation-settings:normal;opacity:1;vector-effect:none;fill-opacity:1;fill-rule:evenodd;stroke:none;stroke-width:8.80145;stroke-linecap:butt;stroke-linejoin:miter;stroke-miterlimit:4;stroke-dasharray:none;stroke-dashoffset:0;stroke-opacity:1;-inkscape-stroke:none;stop-color:#000000;stop-opacity:1"
       d="M 0,67.733333 V 338.66666 c -5.5228483e-6,74.81618 60.650492,135.46668 135.46667,135.46667 74.81617,0 135.46667,-60.6505 135.46666,-135.46667 55.32506,-0.018 105.07964,-33.67729 125.6807,-85.02375 H 270.93333 L 228.6,211.30958 H 98.689582 V 168.97625 L 143.93333,126.64291 H 304.8 l 42.33333,42.33334 H 401.9796 C 386.41077,109.34975 332.55888,67.745181 270.93333,67.733333 Z"
       id="path1-7"
       sodipodi:nodetypes="csscccccccccccc" />
  </g>
</svg>
